<?xml version="1.0" encoding="UTF-8" standalone="no"?>
<svg width="90px" height="67px" viewBox="0 0 90 67" version="1.1" xmlns="http://www.w3.org/2000/svg" xmlns:xlink="http://www.w3.org/1999/xlink" xmlns:sketch="http://www.bohemiancoding.com/sketch/ns">
    <!-- Generator: Sketch 3.4.2 (15855) - http://www.bohemiancoding.com/sketch -->
    <title>TDI-Logo</title>
    <desc>Created with Sketch.</desc>
    <defs></defs>
    <g id="Page-1" stroke="none" stroke-width="1" fill="none" fill-rule="evenodd" sketch:type="MSPage">
        <g id="Desktop" sketch:type="MSArtboardGroup" transform="translate(-467.000000, -287.000000)" fill="#FFFFFF">
            <g id="TDI-Logo" sketch:type="MSLayerGroup" transform="translate(467.000000, 287.000000)">
                <path d="M22.461,11.4734643 C22.461,14.3721786 23.6049692,16.995 25.4629846,18.9483214 L25.4555077,18.9556786 L25.7097231,19.2278929 L25.7246769,19.2278929 L29.0033077,22.4613571 L22.4310923,28.9356429 L19.9562308,26.5004286 L19.8964154,26.5519286 C19.6795846,26.2686786 19.4216308,25.9891071 19.1748923,25.7352857 C14.8233231,21.4460714 7.76884615,21.4460714 3.42475385,25.7352857 C-0.926815385,30.0134643 -0.926815385,36.9549286 3.42475385,41.22575 C7.75389231,45.4745 14.7336,45.5039286 19.1001231,41.2846071 L19.1748923,41.3655357 L22.4535231,38.13575 L26.835,42.4433571 L26.8499538,42.4249643 L28.8500308,44.3966786 L25.6872923,47.5197857 L25.4106462,47.7736071 L25.4330769,47.7993571 C23.5713231,49.749 22.4310923,52.3681429 22.4310923,55.2558214 C22.4310923,61.2997143 27.4032462,66.2142857 33.5604923,66.2142857 C36.8503385,66.2142857 39.8224154,64.7833214 41.8673538,62.5283571 L44.6151231,59.81725 L47.3442,62.5283571 C49.3891385,64.7833214 52.3537385,66.2142857 55.6622769,66.2142857 C61.8083077,66.2142857 66.7954154,61.2997143 66.7954154,55.2558214 C66.7954154,52.3681429 65.6514462,49.749 63.7896923,47.7993571 L63.8009077,47.7736071 L63.5317385,47.5197857 L60.3278769,44.3525357 L66.8851385,37.9187143 L69.6964615,40.6702857 C69.8347846,40.8100714 69.9805846,40.9792857 70.1189077,41.1190714 C70.2647077,41.2515 70.4254615,41.3912857 70.5712615,41.5310714 L70.6236,41.5825714 L70.6385538,41.5825714 C75.0050769,45.3825357 81.6782308,45.2317143 85.8615692,41.1190714 C90.2131385,36.84825 90.2131385,29.9104643 85.8615692,25.6286071 C81.6184154,21.4387143 74.7695538,21.3541071 70.4254615,25.3563929 L70.4105077,25.3563929 L70.2946154,25.4630714 C70.2422769,25.5219286 70.1712462,25.5660714 70.1189077,25.6286071 C70.0590923,25.6837857 70.0179692,25.7426429 69.9581538,25.7941429 L66.9225231,28.7848214 L60.3914308,22.3473214 L63.5691231,19.2278929 L63.8382923,18.9556786 L63.8233385,18.9483214 C65.6850923,16.995 66.8328,14.3721786 66.8328,11.4734643 C66.8328,5.43325 61.8382154,0.529714286 55.6959231,0.529714286 C52.3911231,0.529714286 49.4265231,1.957 47.3890615,4.223 L44.6412923,6.91571429 L41.8972615,4.223 C39.8672769,1.957 36.9026769,0.529714286 33.5866615,0.529714286 C27.4481077,0.529714286 22.461,5.43325 22.461,11.4734643 L22.461,11.4734643 L22.461,11.4734643 Z M58.9259538,52.04075 L58.9184769,52.04075 C59.7409385,52.8684286 60.2605846,54.0161429 60.2605846,55.2558214 C60.2605846,57.7609286 58.1932154,59.7841429 55.6622769,59.7841429 C54.4846615,59.7841429 53.4266769,59.3611071 52.6079538,58.6364286 L49.2134308,55.2815714 L55.7258308,48.8882143 L58.9259538,52.04075 L58.9259538,52.04075 Z M81.2445692,30.1716429 C83.0502462,31.9373571 83.0502462,34.8066429 81.2445692,36.5686786 C79.4575846,38.34175 76.5378462,38.34175 74.7471231,36.5686786 C74.7172154,36.565 74.7097385,36.5355714 74.6910462,36.5318929 L71.4909231,33.3646429 L71.5208308,33.3388929 L71.5208308,33.3352143 L74.7022615,30.2157857 C74.7097385,30.1973929 74.7172154,30.1753214 74.7471231,30.1716429 C76.5378462,28.4059286 79.4575846,28.40225 81.2445692,30.1716429 L81.2445692,30.1716429 L81.2445692,30.1716429 Z M36.6036,58.6364286 C35.7923538,59.3611071 34.7268923,59.7841429 33.5604923,59.7841429 C31.0108615,59.7841429 28.9434923,57.7609286 28.9434923,55.2558214 C28.9434923,54.0161429 29.4706154,52.8684286 30.3005538,52.04075 L30.2893385,52.04075 L33.4558154,48.9286786 L35.3848615,50.8194643 L35.4147692,50.7716429 L40.0130769,55.2815714 L36.6036,58.6364286 L36.6036,58.6364286 Z M44.6151231,50.7569286 L38.0989846,44.3525357 L44.6151231,37.9444643 L51.1200462,44.3525357 L44.6151231,50.7569286 L44.6151231,50.7569286 Z M55.7931231,26.8793214 L62.3503846,33.3278571 L55.7258308,39.83525 L49.1760462,33.3830357 L55.7931231,26.8793214 L55.7931231,26.8793214 Z M14.4868615,36.74525 C12.6849231,38.4410714 9.80630769,38.4300357 8.04175385,36.6716786 C6.24355385,34.9096429 6.24355385,32.0403571 8.04175385,30.2709643 C9.82873846,28.5089286 12.7484769,28.5089286 14.5466769,30.2709643 C14.5691077,30.3003929 14.5803231,30.3151071 14.5952769,30.3335 L15.3354923,31.0545 L15.2981077,31.0912857 L17.7206308,33.475 L14.442,36.7047857 L14.4868615,36.74525 L14.4868615,36.74525 Z M33.4483385,39.8757143 L31.4482615,37.9076786 L31.4856462,37.8488214 L27.0256615,33.4713214 L33.6090923,26.9896786 L40.0728923,33.34625 L33.4483385,39.8757143 L33.4483385,39.8757143 Z M52.6378615,8.10757143 C53.4491077,7.38289286 54.5220462,6.9525 55.6959231,6.9525 C58.2380769,6.9525 60.2979692,8.97939286 60.2979692,11.4734643 C60.2979692,12.7352143 59.7858,13.8682143 58.9558615,14.6848571 L58.9558615,14.6885357 L55.7557385,17.8484286 L49.2433385,11.4403571 L52.6378615,8.10757143 L52.6378615,8.10757143 Z M44.6412923,15.9760357 L51.1574308,22.37675 L44.6412923,28.7958571 L38.1363692,22.37675 L44.6412923,15.9760357 L44.6412923,15.9760357 Z M33.5866615,6.9525 C34.7717538,6.9525 35.8372154,7.38289286 36.6484615,8.10757143 L40.0429846,11.4403571 L33.5380615,17.8484286 L30.3304615,14.6885357 L30.3379385,14.6848571 C29.5005231,13.8682143 28.9958308,12.7352143 28.9958308,11.4734643 C28.9958308,8.98307143 31.0482462,6.9525 33.5866615,6.9525 L33.5866615,6.9525 L33.5866615,6.9525 Z" id="Fill-1" sketch:type="MSShapeGroup"></path>
            </g>
        </g>
    </g>
</svg>